<?xml version="1.0" encoding="UTF-8"?>
<svg id="Layer_1" data-name="Layer 1" xmlns="http://www.w3.org/2000/svg" viewBox="0 0 502.82 116.36">
  <defs>
    <style>
      .cls-1 {
        fill: #fff;
        stroke-width: 0px;
      }
    </style>
  </defs>
  <path class="cls-1" d="M67.5,24.1v59.96c-.11,18.64-14.1,32.3-34.11,32.3-12.35,0-22.96-4.21-28.86-11.42l10.06-8.36c3.44,4.15,10.55,6.61,18.8,6.61,12.3,0,20.77-8.2,20.93-19.13v-3.39c-5.08,7.11-12.84,11.1-22.35,11.1C12.46,91.77,0,75.04,0,56.95,0,37.39,13.72,22.03,32.03,22.03c9.46,0,17.27,4.04,22.41,11.31l.71-9.24h12.35ZM54.33,56.84c0-12.9-9.18-21.64-20.28-21.64s-20.88,9.35-20.88,21.59,8.75,21.75,20.93,21.75,20.22-9.24,20.22-21.7Z"/>
  <path class="cls-1" d="M146.65,24.1v65.59h-12.35l-.71-9.18c-5.08,7.16-12.84,11.26-22.46,11.26-19.51,0-31.97-16.73-31.97-34.82,0-19.57,13.72-34.93,32.03-34.93,9.46,0,17.27,4.04,22.41,11.31l.71-9.24h12.35ZM133.48,56.84c0-12.9-9.18-21.64-20.28-21.64s-20.88,9.35-20.88,21.59,8.75,21.75,20.93,21.75,20.22-9.24,20.22-21.7Z"/>
  <path class="cls-1" d="M258.43,54.6v35.09h-13.17v-35.09c0-14.1-4.54-19.4-13.34-19.4-9.4,0-15.03,6.01-15.03,18.75v35.75h-13.17v-35.75c0-13.72-4.65-18.75-13.28-18.75-9.95,0-15.03,6.56-15.03,19.4v35.09h-13.17V24.1h12.35l.55,7.11c4.48-5.85,11.15-9.18,19.51-9.18s15.58,3.28,19.4,13.17c4.43-8.36,12.19-13.17,22.14-13.17,12.24,0,22.25,7.32,22.25,32.58Z"/>
  <path class="cls-1" d="M332.72,62.2l-.22-.05v.05h-49.03c2.24,9.89,10.38,16.67,20.28,16.67,5.03,0,11.48-1.91,16.72-6.89l8.91,8.85c-7.16,7.87-17.6,10.93-25.91,10.93-18.64,0-33.4-14.81-33.4-34.87s14.76-34.87,33.18-34.87,30.77,15.41,30.77,32.19c0,3.17-.49,5.68-1.31,7.98ZM283.31,51.81h37.88c-1.31-9.46-7.49-16.94-17.87-16.94s-18.04,6.89-20,16.94Z"/>
  <path class="cls-1" d="M342.18,45.75C342.18,20.61,362.62.05,387.71.05s45.58,20.55,45.58,45.69-20.55,45.37-45.64,45.37-45.47-20.44-45.47-45.37ZM419.3,45.64c0-17.44-14.26-31.65-31.65-31.65s-31.54,14.21-31.54,31.65,14.16,31.48,31.54,31.48,31.65-14.16,31.65-31.48Z"/>
  <path class="cls-1" d="M440.9,74.22l10.93-7.82c3.94,6.89,11.26,10.82,19.73,10.82,9.89,0,17.38-4.75,17.38-11.48,0-8.14-11.59-13.06-21.86-17.49-10.33-4.59-21.81-9.95-21.81-23.78S457.78,0,473.64,0c12.57,0,21.97,6.07,25.58,15.74l-10.28,7.1c-2.73-5.96-8.8-9.29-15.2-9.29-8.09,0-14.54,5.03-14.54,11.26,0,6.89,8.14,9.35,18.86,13.94,13.94,6.12,24.76,12.84,24.76,26.73,0,15.63-13.56,25.69-31.43,25.69-14.48,0-25.47-6.78-30.5-16.94Z"/>
</svg>